<svg xmlns="http://www.w3.org/2000/svg" viewBox="0 0 200 170">
  <g transform="translate(40,0)">
    <path d="M87.47 83.49c12.51 0 30.61-2.58 30.61-17.46a14 14 0 0 0-.31-3.42l-7.45-32.36c-1.72-7.12-3.23-10.35-15.73-16.6C84.89 8.69 63.76.5 57.51.5 51.69.5 50 8 43.06 8c-6.68 0-11.64-5.6-17.89-5.6-6 0-9.91 4.09-12.93 12.5 0 0-8.41 23.72-9.49 27.16A6.43 6.43 0 0 0 2.53 44c0 9.22 36.3 39.45 84.94 39.45M120 72.07c1.73 8.19 1.73 9.05 1.73 10.13 0 14-15.74 21.77-36.43 21.77C38.54 104-2.42 76.6-2.42 58.49a18.45 18.45 0 0 1 1.51-7.33C-17.73 52-39.5 55-39.5 74.22c0 31.48 74.59 70.28 133.65 70.28 45.28 0 56.7-20.48 56.7-36.65 0-12.72-11-27.16-30.83-35.78" fill="#e00"/>
  </g>
  <text x="100" y="155" font-family="Red Hat Display, Arial, sans-serif" font-weight="700" font-size="42" fill="#151515" text-anchor="middle">Red Hat</text>
</svg>
